<svg width="64" height="64" viewBox="0 0 64 64" fill="none" xmlns="http://www.w3.org/2000/svg">
<path d="M19 28C23.9706 28 28 23.9706 28 19C28 14.0294 23.9706 10 19 10C14.0294 10 10 14.0294 10 19C10 23.9706 14.0294 28 19 28Z" stroke="#232322" stroke-width="3.5" stroke-linecap="round" stroke-linejoin="round"/>
<path d="M45 28C49.9706 28 54 23.9706 54 19C54 14.0294 49.9706 10 45 10C40.0294 10 36 14.0294 36 19C36 23.9706 40.0294 28 45 28Z" stroke="#232322" stroke-width="3.5" stroke-linecap="round" stroke-linejoin="round"/>
<path d="M19 54C23.9706 54 28 49.9706 28 45C28 40.0294 23.9706 36 19 36C14.0294 36 10 40.0294 10 45C10 49.9706 14.0294 54 19 54Z" stroke="#232322" stroke-width="3.5" stroke-linecap="round" stroke-linejoin="round"/>
<path d="M45 54C49.9706 54 54 49.9706 54 45C54 40.0294 49.9706 36 45 36C40.0294 36 36 40.0294 36 45C36 49.9706 40.0294 54 45 54Z" stroke="#232322" stroke-width="3.5" stroke-linecap="round" stroke-linejoin="round"/>
</svg>
