<svg width="65" height="64" viewBox="0 0 65 64" fill="none" xmlns="http://www.w3.org/2000/svg">
<path d="M56.5 44.3248V19.6748C56.4981 19.3188 56.4023 18.9695 56.2224 18.6623C56.0424 18.355 55.7846 18.1007 55.475 17.9248L33.475 5.54982C33.1786 5.37868 32.8423 5.28857 32.5 5.28857C32.1577 5.28857 31.8214 5.37868 31.525 5.54982L9.525 17.9248C9.21538 18.1007 8.95759 18.355 8.77763 18.6623C8.59768 18.9695 8.50191 19.3188 8.5 19.6748V44.3248C8.50191 44.6809 8.59768 45.0301 8.77763 45.3374C8.95759 45.6446 9.21538 45.899 9.525 46.0748L31.525 58.4498C31.8214 58.621 32.1577 58.7111 32.5 58.7111C32.8423 58.7111 33.1786 58.621 33.475 58.4498L55.475 46.0748C55.7846 45.899 56.0424 45.6446 56.2224 45.3374C56.4023 45.0301 56.4981 44.6809 56.5 44.3248V44.3248Z" stroke="#232322" stroke-width="3" stroke-linecap="round"/>
<path d="M44.75 38.125V25.125L20.5 11.75" stroke="#232322" stroke-width="3" stroke-linecap="round" stroke-linejoin="round"/>
<path d="M56.225 18.6499L32.725 31.9999L8.77502 18.6499" stroke="#232322" stroke-width="3" stroke-linecap="round" stroke-linejoin="round"/>
<path d="M32.725 32L32.5 58.7" stroke="#232322" stroke-width="3" stroke-linecap="round" stroke-linejoin="round"/>
</svg>
