<svg width="64" height="64" viewBox="0 0 64 64" fill="none" xmlns="http://www.w3.org/2000/svg">
<path d="M48 30H54.775C55.1441 30.0008 55.506 29.8982 55.8198 29.7038C56.1335 29.5093 56.3865 29.2309 56.55 28.9L61.15 19.7C61.3779 19.2392 61.422 18.7091 61.2735 18.217C61.1249 17.7249 60.7948 17.3077 60.35 17.05L48 10" stroke="#232322" stroke-width="3" stroke-linecap="round" stroke-linejoin="round"/>
<path d="M16 30H9.225C8.85591 30.0008 8.49397 29.8982 8.18023 29.7038C7.8665 29.5093 7.61352 29.2309 7.45 28.9L2.85 19.7C2.6221 19.2392 2.57795 18.7091 2.72651 18.217C2.87507 17.7249 3.20521 17.3077 3.65 17.05L16 10" stroke="#232322" stroke-width="3" stroke-linecap="round" stroke-linejoin="round"/>
<path d="M40 10C40 12.1217 39.1571 14.1566 37.6569 15.6569C36.1566 17.1571 34.1217 18 32 18C29.8783 18 27.8434 17.1571 26.3431 15.6569C24.8429 14.1566 24 12.1217 24 10H16V52C16 52.5304 16.2107 53.0391 16.5858 53.4142C16.9609 53.7893 17.4696 54 18 54H46C46.5304 54 47.0391 53.7893 47.4142 53.4142C47.7893 53.0391 48 52.5304 48 52V10H40Z" stroke="#232322" stroke-width="3" stroke-linecap="round" stroke-linejoin="round"/>
</svg>
